<svg width="32" height="32" viewBox="0 0 32 32" fill="none" xmlns="http://www.w3.org/2000/svg">
<g clip-path="url(#clip0_1333_18891)">
<path d="M16 29.3333C17.4667 29.3333 18.6667 28.1333 18.6667 26.6666H13.3334C13.3334 28.1333 14.5334 29.3333 16 29.3333ZM24 21.3333V14.6666C24 10.5733 21.8267 7.14659 18 6.23992V5.33325C18 4.22659 17.1067 3.33325 16 3.33325C14.8934 3.33325 14 4.22659 14 5.33325V6.23992C10.1867 7.14659 8.00004 10.5599 8.00004 14.6666V21.3333L5.33337 23.9999V25.3333H26.6667V23.9999L24 21.3333ZM21.3334 22.6666H10.6667V14.6666C10.6667 11.3599 12.68 8.66659 16 8.66659C19.32 8.66659 21.3334 11.3599 21.3334 14.6666V22.6666Z"/>
</g>
<defs>
<clipPath id="clip0_1333_18891">
<rect width="32" height="32" fill="white"/>
</clipPath>
</defs>
</svg>
