<svg width="24" height="24" viewBox="0 0 24 24" fill="none" xmlns="http://www.w3.org/2000/svg">
<g clip-path="url(#clip0_2296_8498)">
<path fill-rule="evenodd" clip-rule="evenodd" d="M22 18V8.98C21.42 9.42 20.74 9.75 20 9.9V18H4V8L12 13L17.3 9.69C16.69 9.47 16.14 9.14 15.67 8.71L12 11L4 6H14.1C14.04 5.68 14 5.34 14 5C14 4.66 14.04 4.32 14.1 4H4C2.9 4 2.01 4.9 2.01 6L2 18C2 19.1 2.9 20 4 20H20C21.1 20 22 19.1 22 18Z" fill="#263238"/>
<path d="M16 5C16 6.66 17.34 8 19 8C20.66 8 22 6.66 22 5C22 3.34 20.66 2 19 2C17.34 2 16 3.34 16 5Z" fill="#E53835"/>
</g>
<defs>
<clipPath id="clip0_2296_8498">
<rect width="24" height="24" fill="white"/>
</clipPath>
</defs>
</svg>
